<?xml version="1.0" ?><svg viewBox="0 0 16.36 20.606" xmlns="http://www.w3.org/2000/svg"><defs><style>.cls-1{fill:#1a171b;}</style></defs><g data-name="Layer 2" id="Layer_2"><g data-name="Layer 1" id="Layer_1-2"><path class="cls-1" d="M13.425,3.978l-.57-2.735A1.568,1.568,0,0,0,11.327,0H5.032A1.568,1.568,0,0,0,3.5,1.243l-.57,2.735a8.285,8.285,0,0,0,0,12.65l.57,2.735a1.568,1.568,0,0,0,1.528,1.243h6.3a1.568,1.568,0,0,0,1.528-1.243l.57-2.735A8.284,8.284,0,0,0,13.425,3.978ZM4.116,1.37A.94.94,0,0,1,5.032.624h6.3a.941.941,0,0,1,.917.746l.428,2.056a8.258,8.258,0,0,0-8.984,0Zm8.128,17.866a.94.94,0,0,1-.917.745H5.032a.939.939,0,0,1-.916-.745L3.687,17.18a8.258,8.258,0,0,0,8.985,0ZM8.18,17.9a7.606,7.606,0,0,1-7.6-7.6C.993.227,15.369.23,15.777,10.3A7.606,7.606,0,0,1,8.18,17.9ZM2.585,10.615H1.519a.312.312,0,1,1,0-.624H2.585a.312.312,0,0,1,0,.624Zm12.255,0H13.775a.312.312,0,1,1,0-.624H14.84A.312.312,0,0,1,14.84,10.615ZM8.492,15.9v1.064a.312.312,0,1,1-.624,0V15.9a.312.312,0,1,1,.624,0ZM7.868,4.707V3.642a.312.312,0,0,1,.624,0V4.707a.312.312,0,1,1-.624,0ZM3.334,7.817a7.24,7.24,0,0,1-1.079-.574A.313.313,0,0,1,2.568,6.7l.922.533A.314.314,0,0,1,3.334,7.817Zm10.613,6.128a7.28,7.28,0,0,1-1.078-.574.313.313,0,0,1,.313-.541l.922.533A.314.314,0,0,1,13.947,13.945Zm-8.295,1.36-.532.922a.312.312,0,0,1-.541-.312l.533-.922a.312.312,0,1,1,.54.312ZM11.78,4.691l-.532.922a.312.312,0,0,1-.541-.312l.532-.922a.312.312,0,0,1,.541.312ZM5.652,5.3a.312.312,0,0,1-.54.312l-.533-.922a.312.312,0,0,1,.541-.312ZM11.51,16.383c-.28.053-.562-.731-.8-1.078a.312.312,0,0,1,.541-.312C11.549,15.587,12.2,16.265,11.51,16.383ZM3.49,13.371a7.231,7.231,0,0,1-1.078.574.314.314,0,0,1-.157-.582l.923-.533A.312.312,0,0,1,3.49,13.371Zm9.379-6.136.923-.533a.312.312,0,0,1,.312.541l-.922.532a.308.308,0,0,1-.156.042A.314.314,0,0,1,12.869,7.235Zm-2.256,3.38H8.18a.312.312,0,0,1-.312-.312V6.322a.312.312,0,0,1,.624,0V9.991h2.121a.312.312,0,1,1,0,.624Z" id="time"/></g></g></svg>