<?xml version="1.0" encoding="UTF-8" standalone="no"?>
<svg
   width="64pt"
   height="64pt"
   viewBox="0 0 22.577778 22.577778"
   version="1.1"
   id="svg831"
   inkscape:version="1.1.2 (1:1.1+202202050950+0a00cf5339)"
   sodipodi:docname="20 - Sportman.svg"
   inkscape:export-filename="/media/taufikramadhan/Data/Tr Design Studio/Project Design/TR Creative Design/Icon Design/Project Hiring/Icon Icons/018 - Gym And Fitness/5 - Send/20 - Sportman.png"
   inkscape:export-xdpi="576"
   inkscape:export-ydpi="576"
   xmlns:inkscape="http://www.inkscape.org/namespaces/inkscape"
   xmlns:sodipodi="http://sodipodi.sourceforge.net/DTD/sodipodi-0.dtd"
   xmlns="http://www.w3.org/2000/svg"
   xmlns:svg="http://www.w3.org/2000/svg"
   xmlns:rdf="http://www.w3.org/1999/02/22-rdf-syntax-ns#"
   xmlns:cc="http://creativecommons.org/ns#"
   xmlns:dc="http://purl.org/dc/elements/1.1/">
  <defs
     id="defs825">
    <pattern
       id="EMFhbasepattern"
       patternUnits="userSpaceOnUse"
       width="6"
       height="6"
       x="0"
       y="0" />
    <pattern
       id="EMFhbasepattern-9"
       patternUnits="userSpaceOnUse"
       width="6"
       height="6"
       x="0"
       y="0" />
    <pattern
       id="EMFhbasepattern-0"
       patternUnits="userSpaceOnUse"
       width="6"
       height="6"
       x="0"
       y="0" />
    <pattern
       id="EMFhbasepattern-7"
       patternUnits="userSpaceOnUse"
       width="6"
       height="6"
       x="0"
       y="0" />
    <pattern
       id="EMFhbasepattern-2"
       patternUnits="userSpaceOnUse"
       width="6"
       height="6"
       x="0"
       y="0" />
    <pattern
       id="EMFhbasepattern-98"
       patternUnits="userSpaceOnUse"
       width="6"
       height="6"
       x="0"
       y="0" />
    <pattern
       id="EMFhbasepattern-6"
       patternUnits="userSpaceOnUse"
       width="6"
       height="6"
       x="0"
       y="0" />
    <pattern
       id="EMFhbasepattern-01"
       patternUnits="userSpaceOnUse"
       width="6"
       height="6"
       x="0"
       y="0" />
    <pattern
       id="EMFhbasepattern-07"
       patternUnits="userSpaceOnUse"
       width="6"
       height="6"
       x="0"
       y="0" />
    <pattern
       id="EMFhbasepattern-8"
       patternUnits="userSpaceOnUse"
       width="6"
       height="6"
       x="0"
       y="0" />
    <pattern
       id="EMFhbasepattern-4"
       patternUnits="userSpaceOnUse"
       width="6"
       height="6"
       x="0"
       y="0" />
    <pattern
       id="EMFhbasepattern-40"
       patternUnits="userSpaceOnUse"
       width="6"
       height="6"
       x="0"
       y="0" />
    <pattern
       id="EMFhbasepattern-08"
       patternUnits="userSpaceOnUse"
       width="6"
       height="6"
       x="0"
       y="0" />
    <pattern
       id="EMFhbasepattern-04"
       patternUnits="userSpaceOnUse"
       width="6"
       height="6"
       x="0"
       y="0" />
    <pattern
       id="EMFhbasepattern-014"
       patternUnits="userSpaceOnUse"
       width="6"
       height="6"
       x="0"
       y="0" />
    <pattern
       id="EMFhbasepattern-27"
       patternUnits="userSpaceOnUse"
       width="6"
       height="6"
       x="0"
       y="0" />
    <pattern
       id="EMFhbasepattern-09"
       patternUnits="userSpaceOnUse"
       width="6"
       height="6"
       x="0"
       y="0" />
    <pattern
       id="EMFhbasepattern-5"
       patternUnits="userSpaceOnUse"
       width="6"
       height="6"
       x="0"
       y="0" />
    <pattern
       id="EMFhbasepattern-018"
       patternUnits="userSpaceOnUse"
       width="6"
       height="6"
       x="0"
       y="0" />
  </defs>
  <sodipodi:namedview
     inkscape:lockguides="true"
     id="base"
     pagecolor="#ffffff"
     bordercolor="#666666"
     borderopacity="1.0"
     inkscape:pageopacity="0.0"
     inkscape:pageshadow="2"
     inkscape:zoom="4.4249417"
     inkscape:cx="42.37344"
     inkscape:cy="53.78602"
     inkscape:document-units="pt"
     inkscape:current-layer="layer1"
     showgrid="false"
     units="pt"
     inkscape:window-width="1366"
     inkscape:window-height="737"
     inkscape:window-x="0"
     inkscape:window-y="31"
     inkscape:window-maximized="0"
     inkscape:pagecheckerboard="true"
     inkscape:showpageshadow="false"
     inkscape:object-paths="true"
     inkscape:snap-intersection-paths="true"
     inkscape:snap-smooth-nodes="true"
     inkscape:snap-midpoints="true"
     showguides="true"
     inkscape:snap-bbox="true"
     inkscape:bbox-nodes="true"
     inkscape:snap-nodes="false"
     inkscape:snap-global="true"
     inkscape:document-rotation="0">
    <inkscape:grid
       type="xygrid"
       id="grid1378" />
    <sodipodi:guide
       position="0.97013831,21.607643"
       orientation="78.000048,0"
       id="guide1380"
       inkscape:locked="true" />
    <sodipodi:guide
       position="0.97013831,0.97013129"
       orientation="0,78.000005"
       id="guide1382"
       inkscape:locked="true" />
    <sodipodi:guide
       position="21.607639,0.97013129"
       orientation="-78.000048,0"
       id="guide1384"
       inkscape:locked="true" />
    <sodipodi:guide
       position="21.607639,21.607643"
       orientation="0,-78.000005"
       id="guide1386"
       inkscape:locked="true" />
  </sodipodi:namedview>
  <metadata
     id="metadata828">
    <rdf:RDF>
      <cc:Work
         rdf:about="">
        <dc:format>image/svg+xml</dc:format>
        <dc:type
           rdf:resource="http://purl.org/dc/dcmitype/StillImage" />
      </cc:Work>
    </rdf:RDF>
  </metadata>
  <g
     inkscape:label="Icon"
     inkscape:groupmode="layer"
     id="layer1"
     transform="translate(0,-274.42223)">
    <path
       id="rect45767"
       style="color:#000000;display:inline;fill:#000000;stroke:none;stroke-width:1;stroke-linecap:round;stroke-linejoin:round;stroke-miterlimit:10;-inkscape-stroke:none"
       d="m 6.8672583,278.53155 c 0,0.60366 0.278021,0.99914 0.5685594,1.18056 v 1.01978 c 0,0.4708 0.3894812,0.85964 0.8615887,0.85964 0.099773,0.57074 0.2544553,1.13952 0.6943275,1.53129 0.1500339,0.13362 0.3184605,0.25157 0.504378,0.35202 l -0.2398714,1.01524 -1.8470071,0.30795 c -0.2461451,-0.034 -1.2699978,-0.1481 -2.2081105,0.15041 -0.5376563,0.17107 -1.0737361,0.49819 -1.3549469,1.08071 -0.2687104,0.55661 -0.2813734,1.2995 0.041491,2.25414 -0.6520195,1.38393 -0.6756893,2.80809 -0.015568,3.92351 -0.090786,0.22936 -0.2332636,0.66248 -0.2658027,1.18314 -0.048538,0.77655 0.1675183,1.79276 1.1364709,2.56793 l 0.00133,-0.003 c 0.057859,0.0474 0.1300501,0.0739 0.2048637,0.0752 H 17.629064 c 0.07451,-0.001 0.146441,-0.0275 0.204214,-0.0745 l 0.0013,10e-4 c 0.968951,-0.77515 1.185652,-1.79137 1.137119,-2.56791 -0.03252,-0.52025 -0.175521,-0.953 -0.266451,-1.1825 0.660508,-1.11539 0.637008,-2.53944 -0.0149,-3.92351 0.322952,-0.95476 0.310227,-1.69814 0.04149,-2.25479 -0.281214,-0.58252 -0.817293,-0.90965 -1.354948,-1.08072 -1.075312,-0.34215 -2.211352,-0.14198 -2.211352,-0.14198 l -1.843766,-0.31507 -0.240519,-1.01653 c 0.18619,-0.10049 0.354992,-0.2184 0.505026,-0.35204 0.43987,-0.39176 0.594556,-0.96053 0.694327,-1.53127 0.472109,0 0.861589,-0.38885 0.861589,-0.85965 v -0.96013 c 0.01453,-0.0153 0.02755,-0.0321 0.0389,-0.0499 0.07809,-0.12182 0.399451,-0.64825 0.502432,-1.3569 0.102985,-0.70864 -0.05136,-1.62726 -0.906323,-2.34749 -0.0031,-0.003 -0.0064,-0.005 -0.0098,-0.008 -0.342683,-0.27066 -0.707736,-0.47064 -1.271964,-0.55365 -0.206911,-0.0304 -0.238301,0.0312 -0.304054,0.0642 -0.06478,0.0325 -0.12591,0.0691 -0.186061,0.10827 -0.0099,-0.0138 -0.0203,-0.028 -0.03177,-0.0421 -0.05369,-0.0661 -0.125228,-0.17798 -0.335819,-0.18606 v -6.7e-4 c -0.122531,-0.005 -0.247138,-0.006 -0.373421,-0.006 l -2.3e-5,5e-5 c -1.220745,0.004 -2.599597,0.23139 -3.8113572,0.42529 -0.606343,0.0971 -1.1145413,0.58484 -1.2667782,1.18832 z m 6.5815407,-2.39668 c 0.412493,0.0693 0.620633,0.17328 0.901785,0.39482 0.677607,0.57359 0.756442,1.18705 0.676178,1.73938 -0.05052,0.34762 -0.17831,0.66002 -0.278769,0.86353 -0.616258,-0.35222 -0.847977,-1.04505 -0.847977,-1.04505 -0.05466,-0.17551 -0.241559,-0.27318 -0.416857,-0.21783 -0.04869,0.0158 -0.09306,0.0427 -0.12966,0.0784 -0.706274,0.58404 -2.010937,0.93318 -3.148793,1.1034 0.385484,-0.26483 0.740075,-0.61196 0.967912,-1.07163 0.08227,-0.1645 0.01511,-0.36452 -0.149758,-0.44604 -0.164329,-0.0818 -0.363877,-0.0147 -0.445382,0.14976 -0.286614,0.57828 -0.9233622,0.98211 -1.5118356,1.22529 -0.5105616,0.21098 -0.9569799,0.29861 -1.0664546,0.31831 -0.039681,-0.005 -0.1227565,-0.0211 -0.2106971,-0.0759 -0.118767,-0.0741 -0.2494086,-0.18841 -0.2560788,-0.58865 l 0.2982188,-1.39321 c 0.075511,-0.29933 0.4614063,-0.65106 0.727392,-0.69368 1.2196136,-0.19516 2.5785753,-0.40105 3.7180023,-0.40194 l -1e-6,-6e-5 c 0.07596,-5e-5 0.150404,6.6e-4 0.224311,0.003 l 0.0765,0.16208 c 0.0648,0.17047 0.25499,0.25674 0.425933,0.19319 z m 0.0013,2.56202 c 0.177636,0.32421 0.499508,0.76673 1.028205,1.04571 v 0.98931 c 0,0.11454 -0.08192,0.19578 -0.196435,0.19578 -0.02518,0 -0.04647,-0.002 -0.06613,-0.01 -0.211763,-0.0756 -0.435878,0.0768 -0.443437,0.30146 -0.0194,0.56917 -0.228074,1.05162 -0.626907,1.40682 -0.39883,0.35521 -1.004393,0.5906 -1.857379,0.5906 -0.852988,0 -1.455955,-0.23539 -1.8547875,-0.5906 -0.3988325,-0.3552 -0.6081558,-0.83765 -0.6275535,-1.40682 -0.00703,-0.22629 -0.2334556,-0.37936 -0.4460307,-0.30146 -0.016497,0.006 -0.036582,0.01 -0.06353,0.01 -0.1145017,0 -0.1957869,-0.0813 -0.1957869,-0.19578 v -0.83955 c 0.2452156,-0.004 1.1077427,-0.026 2.1264246,-0.17245 1.070675,-0.15397 2.313823,-0.43016 3.223347,-1.02302 z m -0.989953,5.02887 0.258023,1.10016 c -0.01004,0.7583 -0.278465,1.03963 -0.577636,1.20583 -0.304956,0.16944 -0.676429,0.17894 -0.852514,0.17894 -0.176086,0 -0.545613,-0.01 -0.850569,-0.17894 -0.299171,-0.1662 -0.5675466,-0.44753 -0.5776369,-1.20583 l 0.2580249,-1.09952 c 0.349438,0.10062 0.740609,0.15365 1.170181,0.15365 0.430132,0 0.82181,-0.0533 1.172127,-0.15429 z m 3.052197,8.46744 c -0.09423,0.30664 -0.328689,1.14694 -0.328689,1.92156 0,0.49653 0.101844,0.93903 0.200973,1.25252 H 7.1933484 c 0.099127,-0.31349 0.2009731,-0.75599 0.2009731,-1.25252 0,-0.77519 -0.2365706,-1.61614 -0.3312814,-1.9222 0.2254111,-0.55848 0.3324612,-1.07233 0.3854146,-1.57408 0.8193195,-2.12609 0.5221911,-4.36844 0.3633717,-5.21427 l 1.4081103,-0.23403 c 0.098293,0.74113 0.4754697,1.2093 0.8940043,1.44181 0.487446,0.27081 0.99798,0.26256 1.174073,0.26256 0.176093,0 0.685978,0.009 1.173423,-0.26256 0.4184,-0.23245 0.796999,-0.70046 0.89595,-1.44117 l 1.408756,0.23339 c -0.158818,0.84583 -0.455945,3.08818 0.362725,5.2146 0.05185,0.5022 0.157931,1.01577 0.383469,1.57439 z m -8.9543681,-6.77278 c 0.2339149,-0.003 0.437247,0.009 0.5821734,0.0201 0.1058692,0.54999 0.3350536,2.05172 0.055754,3.63502 -0.2447475,-0.64282 -0.6029192,-1.00809 -0.6029192,-1.00809 -0.062716,-0.0617 -0.1473588,-0.096 -0.2353329,-0.0953 -0.087974,-6.6e-4 -0.1726176,0.0336 -0.2353327,0.0953 -0.1304577,0.12975 -0.1304577,0.34089 0,0.47065 0,0 0.2949893,0.28918 0.4927077,0.88234 0.197719,0.59316 0.2875109,1.46378 -0.2106973,2.62626 -0.031686,0.0748 -0.034915,0.15843 -0.00907,0.23534 H 6.394594 c 0,0 0.3358196,1.0408 0.3358196,1.83274 0,0.53771 -0.1456651,1.00652 -0.2392227,1.25252 H 5.0688556 c -0.7137617,-0.61701 -0.8392909,-1.32795 -0.8012982,-1.93583 0.039503,-0.63217 0.2748777,-1.10534 0.2748777,-1.10534 0.0553,-0.11053 0.042554,-0.23669 -0.02141,-0.33258 l 0.00133,-6.7e-4 c -0.6288175,-0.94322 -0.6446805,-2.21082 0.020115,-3.54036 0.040698,-0.0818 0.045862,-0.17681 0.014273,-0.26257 -0.3335495,-0.91726 -0.2938275,-1.49666 -0.112803,-1.87164 0.1810178,-0.37497 0.5273499,-0.59809 0.958188,-0.73517 0.3769796,-0.11994 0.799559,-0.15796 1.1559176,-0.16273 z m 10.6178601,0.16271 c 0.430836,0.13709 0.777167,0.36021 0.958188,0.73517 0.181021,0.375 0.220741,0.95438 -0.112808,1.87165 -0.03273,0.0892 -0.02499,0.18373 0.01426,0.26256 0.664773,1.32955 0.648911,2.59714 0.0201,3.54037 -0.06993,0.10513 -0.07211,0.23554 -0.01685,0.33971 0.01644,0.0337 0.233611,0.49044 0.271638,1.09887 0.03799,0.60787 -0.08754,1.31882 -0.8013,1.93582 h -1.422334 c -0.09356,-0.246 -0.239223,-0.71481 -0.239223,-1.25252 0,-0.79193 0.333227,-1.83274 0.333227,-1.83274 0.02666,-0.0802 0.02119,-0.16327 -0.0098,-0.23532 -0.498209,-1.16249 -0.405822,-2.03312 -0.208103,-2.62628 0.19772,-0.59315 0.490113,-0.88234 0.490113,-0.88234 0.130318,-0.12973 0.130318,-0.34092 0,-0.47065 -0.129463,-0.12868 -0.338608,-0.12868 -0.468071,0 0,0 -0.358172,0.36527 -0.60292,1.0081 -0.278649,-1.57962 -0.05044,-3.08188 0.05575,-3.63501 0.559879,-0.0415 1.237577,-0.0113 1.738091,0.14261 z m -8.3442717,3.46258 c -0.1394995,0.004 -0.2615246,0.0951 -0.3053494,0.22756 -0.057219,0.1738 0.037034,0.36114 0.2106983,0.4188 0.6111881,0.20372 1.5710708,0.28201 2.5510608,0.28201 0.979988,0 1.941816,-0.0783 2.553005,-0.28201 0.173666,-0.0577 0.267911,-0.245 0.210697,-0.4188 -0.05766,-0.17367 -0.244988,-0.26792 -0.418801,-0.2107 -0.445345,0.14845 -1.405515,0.24764 -2.344901,0.24764 -0.939388,0 -1.8976099,-0.0991 -2.3429568,-0.24764 -0.036557,-0.0126 -0.074946,-0.0178 -0.1134479,-0.0168 z"
       sodipodi:nodetypes="ccscscccssccsccccccsccsscccscsccscccscccccccccccsccccccccscccccccccccccssccsssccsscscccsscccsccsccsccccssccccccccccccscccsccscccccsscccsccccsccsccsccccccsccscccscss" />
  </g>
</svg>
