<?xml version="1.0" encoding="UTF-8" standalone="no"?>
<!-- Created with Inkscape (http://www.inkscape.org/) -->

<svg
   xmlns:dc="http://purl.org/dc/elements/1.1/"
   xmlns:cc="http://creativecommons.org/ns#"
   xmlns:rdf="http://www.w3.org/1999/02/22-rdf-syntax-ns#"
   xmlns:svg="http://www.w3.org/2000/svg"
   xmlns="http://www.w3.org/2000/svg"
   xmlns:sodipodi="http://sodipodi.sourceforge.net/DTD/sodipodi-0.dtd"
   xmlns:inkscape="http://www.inkscape.org/namespaces/inkscape"
   width="48pt"
   height="48pt"
   viewBox="0 0 16.933334 16.933333"
   version="1.1"
   id="svg979"
   inkscape:version="0.92.4 (5da689c313, 2019-01-14)"
   sodipodi:docname="14 - Make Up.svg"
   inkscape:export-filename="E:\TR Design Studio Creative\Project Design\TR Creative Design\Icon Design\Project Hiring\Icon Icons\Project - 001\002 - Beauty And Fashion\Send\Line\14 - Make Up.png"
   inkscape:export-xdpi="768"
   inkscape:export-ydpi="768">
  <defs
     id="defs973" />
  <sodipodi:namedview
     id="base"
     pagecolor="#ffffff"
     bordercolor="#666666"
     borderopacity="1.0"
     inkscape:pageopacity="0.0"
     inkscape:pageshadow="2"
     inkscape:zoom="8.546875"
     inkscape:cx="12.987203"
     inkscape:cy="32"
     inkscape:document-units="pt"
     inkscape:current-layer="layer1"
     showgrid="false"
     units="pt"
     inkscape:window-width="1366"
     inkscape:window-height="716"
     inkscape:window-x="-8"
     inkscape:window-y="-8"
     inkscape:window-maximized="1"
     inkscape:snap-bbox="true"
     inkscape:bbox-nodes="true"
     inkscape:snap-nodes="false"
     showguides="false">
    <inkscape:grid
       type="xygrid"
       id="grid1526" />
    <sodipodi:guide
       position="0.97013909,15.963209"
       orientation="56.666615,0"
       id="guide1528"
       inkscape:locked="false" />
    <sodipodi:guide
       position="0.97013909,0.97016731"
       orientation="0,56.666667"
       id="guide1530"
       inkscape:locked="false" />
    <sodipodi:guide
       position="15.963195,0.97016731"
       orientation="-56.666615,0"
       id="guide1532"
       inkscape:locked="false" />
    <sodipodi:guide
       position="15.963195,15.963209"
       orientation="0,-56.666667"
       id="guide1534"
       inkscape:locked="false" />
  </sodipodi:namedview>
  <metadata
     id="metadata976">
    <rdf:RDF>
      <cc:Work
         rdf:about="">
        <dc:format>image/svg+xml</dc:format>
        <dc:type
           rdf:resource="http://purl.org/dc/dcmitype/StillImage" />
        <dc:title></dc:title>
      </cc:Work>
    </rdf:RDF>
  </metadata>
  <g
     inkscape:label="Layer 1"
     inkscape:groupmode="layer"
     id="layer1"
     transform="translate(0,-280.06668)">
    <path
       style="color:#000000;font-style:normal;font-variant:normal;font-weight:normal;font-stretch:normal;font-size:medium;line-height:normal;font-family:sans-serif;font-variant-ligatures:normal;font-variant-position:normal;font-variant-caps:normal;font-variant-numeric:normal;font-variant-alternates:normal;font-feature-settings:normal;text-indent:0;text-align:start;text-decoration:none;text-decoration-line:none;text-decoration-style:solid;text-decoration-color:#000000;letter-spacing:normal;word-spacing:normal;text-transform:none;writing-mode:lr-tb;direction:ltr;text-orientation:mixed;dominant-baseline:auto;baseline-shift:baseline;text-anchor:start;white-space:normal;shape-padding:0;clip-rule:nonzero;display:inline;overflow:visible;visibility:visible;opacity:1;isolation:auto;mix-blend-mode:normal;color-interpolation:sRGB;color-interpolation-filters:linearRGB;solid-color:#000000;solid-opacity:1;vector-effect:none;fill:#000000;fill-opacity:1;fill-rule:nonzero;stroke:none;stroke-width:0.529167;stroke-linecap:round;stroke-linejoin:round;stroke-miterlimit:1.5;stroke-dasharray:none;stroke-dashoffset:0;stroke-opacity:1;paint-order:markers fill stroke;color-rendering:auto;image-rendering:auto;shape-rendering:auto;text-rendering:auto;enable-background:accumulate"
       d="m 5.2098165,281.42647 c -0.3889145,0.15531 -0.7591967,0.36742 -1.0128304,0.70026 -0.2536338,0.33285 -0.3507969,0.8033 -0.1871605,1.29421 0.2511602,0.75349 0.4100152,1.48456 0.6442392,2.10077 0.1959667,0.51558 0.4688798,0.97689 0.9128842,1.235 l 0.2928358,1.16372 v 0.93897 l -3.5853304,-6.4e-4 c -0.5361667,0 -0.9790942,0.44101 -0.9790906,0.97718 v 5.8077 c 0,0.20533 0.1341164,0.38584 0.3806721,0.38584 2.1551784,9.8e-4 4.3100815,-6.4e-4 6.4646702,-6.4e-4 0.1790117,-6.5e-4 0.3239513,-0.14566 0.324666,-0.32468 0,-2.59457 0,-5.18913 0,-7.7837 l 0.2788308,-1.10832 c 0.5063054,-0.24324 0.8052561,-0.73591 1.0160133,-1.29039 0.2342227,-0.61622 0.3930778,-1.34729 0.6442398,-2.10078 0.163636,-0.49091 0.06838,-0.96137 -0.185251,-1.2942 -0.2536355,-0.33286 -0.6264626,-0.54497 -1.0153771,-0.70027 -0.7778303,-0.31061 -1.6351061,-0.3896 -1.9970059,-0.38961 -0.3618996,-2e-5 -1.2191755,0.079 -1.9970055,0.38958 z m 2.2790273,0.27946 c 0.1766557,0.0168 0.4082799,0.0529 0.6518783,0.10065 v 1.18662 c 0,0.43469 0.6518783,0.43469 0.6518783,0 v -1.01983 c 0.056819,0.0193 0.1143039,0.0381 0.1686989,0.0599 0.3252784,0.1299 0.5962482,0.30421 0.7384558,0.49083 0.1422066,0.18662 0.1945582,0.36613 0.086578,0.69007 -0.2641984,0.7926 -0.4299058,1.53111 -0.6372363,2.07658 -0.1994135,0.52465 -0.4082023,0.83002 -0.7454583,0.96001 H 6.0125688 c -0.3374249,-0.13004 -0.5479548,-0.43536 -0.7473679,-0.96001 -0.2073306,-0.54547 -0.3730381,-1.28398 -0.6372365,-2.07658 -0.1079757,-0.32394 -0.05562,-0.50345 0.086578,-0.69007 0.1422066,-0.18662 0.4131778,-0.36093 0.7384562,-0.49083 0.0257,-0.01 0.053277,-0.019 0.079574,-0.0287 v 0.98863 c 0,0.43469 0.6518782,0.43469 0.6518782,0 v -1.16815 c 0.2405816,-0.0508 0.4655551,-0.088 0.6518783,-0.10829 v 1.92827 c 0,0.43468 0.6525148,0.43468 0.6525148,0 z m 6.8810082,2.58969 c -0.254662,0.002 -0.500515,0.001 -0.721904,0.001 -0.407605,0.045 -0.376335,0.64741 0.03374,0.64998 v 0.32721 h -0.65188 c -0.01121,-5.9e-4 -0.02249,-5.9e-4 -0.03374,0 -0.424546,0.0314 -0.391784,0.66443 0.03374,0.65187 h 0.651878 v 0.32467 h -0.651878 c -0.44407,-0.01 -0.44407,0.66146 0,0.65188 h 0.651878 v 0.32722 h -0.651878 c -0.01121,-6.6e-4 -0.02249,-6.6e-4 -0.03374,0 -0.43501,0.0225 -0.401269,0.675 0.03374,0.65251 h 0.651878 v 4.23657 h -0.651878 v -0.32721 c -6.51e-4,-0.18003 -0.147146,-0.32532 -0.327212,-0.32463 H 12.37793 v -1.95628 c -6.52e-4,-0.17913 -0.146175,-0.32404 -0.325302,-0.32466 v -1.95627 c 8.14e-4,-0.18485 -0.152006,-0.33338 -0.336762,-0.32721 -0.06695,0.002 -0.131633,0.0248 -0.18525,0.0649 l -1.303757,0.97973 c -0.08165,0.0615 -0.129687,0.15753 -0.129867,0.25973 v 0.97908 c -0.01121,-6.5e-4 -0.02252,-6.5e-4 -0.03374,0 -0.1668135,0.0166 -0.2937091,0.15702 -0.2934724,0.32467 v 1.20636 l -0.5971305,0.89442 c -0.035836,0.0533 -0.055138,0.11592 -0.055385,0.18016 v 3.91254 c 0,0.19543 0.1073942,0.32464 0.3342267,0.32464 h 5.8331652 c 0.190069,0.016 0.353191,-0.13393 0.353313,-0.32466 v -2.60816 c 0,-0.53617 -0.442922,-0.97718 -0.979091,-0.97718 h -0.325302 v -4.23657 h 0.652514 c 0.43501,0 0.43501,-0.65252 0,-0.65252 h -0.652514 v -0.32721 h 0.652514 c 0.425302,-0.009 0.425302,-0.64269 0,-0.65187 h -0.652514 v -0.32467 h 0.652514 c 0.444452,0.01 0.444452,-0.66186 0,-0.65188 h -0.652514 v -0.32722 c 0.46661,0 0.467863,-0.6512 0.03628,-0.6512 z m -8.0937309,2.60688 h 1.7729306 l -0.2259928,0.90016 c -0.00641,0.026 -0.00967,0.0528 -0.00955,0.0796 v 2.28093 H 6.836328 v -0.32722 c 2e-6,-0.28552 -0.1268533,-0.54139 -0.324666,-0.72062 v -1.23311 c 7.26e-5,-0.0267 -0.00313,-0.0536 -0.00955,-0.0796 z m 5.1246289,0.97717 v 1.30631 h -0.651878 v -0.81548 z m -9.1262956,1.63099 h 3.5853304 c 0.1838691,0 0.3246672,0.14142 0.3246659,0.32529 v 5.54097 H 5.5325725 v -4.88909 c -6.192e-4,-0.17913 -0.1455384,-0.32404 -0.324666,-0.32466 H 2.9244229 c -0.1791277,6.5e-4 -0.3240304,0.14553 -0.324666,0.32466 v 4.88909 H 1.9472421 v -5.54097 c -1.3e-6,-0.18387 0.1433431,-0.32529 0.3272123,-0.32529 z m 8.1472056,0.32529 h 1.303756 v 1.63097 c -0.01047,-6.5e-4 -0.02077,-6.5e-4 -0.03119,0 -0.43451,0.0211 -0.403317,0.6729 0.03119,0.65188 h 0.652515 v 3.25812 h -1.304393 v -3.58534 c -2.48e-4,-0.0643 -0.01955,-0.12677 -0.05538,-0.18015 L 10.421664,290.717 Z m -7.1700249,0.97909 h 1.6290591 v 1.95627 H 3.2516351 Z m 3.5846939,0 h 0.9771808 v 4.56188 H 6.836329 Z m 3.260664,0.58694 0.324667,0.48828 v 3.48666 H 9.7697811 v -3.48666 z m 2.932816,1.36933 h 1.629059 c 0.183877,0 0.327213,0.14079 0.327213,0.32467 v 2.28094 h -1.956272 z m -9.7781739,0.65188 h 1.6290591 v 1.95373 H 3.2516351 Z"
       id="path1121"
       inkscape:connector-curvature="0"
       sodipodi:nodetypes="cscccccccccccccscssccccssccccsccsccccssccssccccccccccccccccccccccccccccccccccccccccssccsscccccccccccccccccccccccccccssccccccccccscccccccccccccccccccccccccccccsscccccccc" />
  </g>
</svg>
