<?xml version="1.0" encoding="iso-8859-1"?>
<!-- Generator: Adobe Illustrator 16.0.0, SVG Export Plug-In . SVG Version: 6.00 Build 0)  -->
<!DOCTYPE svg PUBLIC "-//W3C//DTD SVG 1.1//EN" "http://www.w3.org/Graphics/SVG/1.1/DTD/svg11.dtd">
<svg version="1.1" id="Capa_1" xmlns="http://www.w3.org/2000/svg" xmlns:xlink="http://www.w3.org/1999/xlink" x="0px" y="0px"
	 width="79.536px" height="79.536px" viewBox="0 0 79.536 79.536" style="enable-background:new 0 0 79.536 79.536;"
	 xml:space="preserve">
<g>
	<path style="fill:#010002;" d="M59.107,12.016c-3.895,0-7.053,3.148-7.053,7.029c0,3.895,3.158,7.042,7.053,7.042
		c3.878,0,7.031-3.148,7.031-7.042C66.139,15.159,62.985,12.016,59.107,12.016z M71.846,52.112
		c-0.798,0.342-1.725-0.052-2.066-0.839l-3.283-13.701l-0.45,14.562h-0.011l1.305,24.078c0.083,1.449-0.999,2.703-2.443,2.807
		c-0.073,0.01-0.13,0.01-0.197,0.01c-1.372,0-2.537-1.057-2.609-2.443l-2.998-22.723l-2.973,22.723
		c-0.113,1.387-1.264,2.443-2.636,2.443c-0.057,0-0.119,0-0.191-0.01c-1.435-0.109-2.532-1.357-2.438-2.807l1.283-24.078
		l-0.439-14.562c0,0-8.746,8.813-9.292,9.052c-0.956,0.404-2.054-0.042-2.46-0.994l-7.107-15.465l5.388,26.121H33.03l-1.605,21.375
		c0,1.025-0.844,1.875-1.861,1.875c-1.057,0-1.882-0.85-1.882-1.875l-1.608-21.375h-0.938h-0.95l-1.6,21.375
		c0,1.025-0.834,1.875-1.882,1.875c-1.025,0-1.867-0.85-1.867-1.875l-1.613-21.375h-5.191l5.383-26.121L10.316,45.63
		c-0.404,0.952-1.512,1.398-2.468,0.994c-0.942-0.404-1.388-1.502-0.976-2.465c0,0,4.223-15.351,6.172-19.343
		c1.947-3.995,3.892-6.424,11.322-6.424h0.769H25.9c7.417,0,9.372,2.429,11.319,6.424c1.432,2.92,4.052,11.876,5.367,16.495
		c1.888-2.576,4.453-6.213,5.43-8.246c1.651-3.376,4.194-5.409,10.449-5.409h1.273c6.266,0,8.793,2.032,10.455,5.409
		c1.646,3.358,2.501,16.976,2.501,16.976C73.031,50.859,72.653,51.771,71.846,52.112z M37.098,13.069
		c0,2.022-1.707,3.653-3.834,3.653c-1.479,0-2.724-0.82-3.361-1.999c-1.442,1.193-3.218,1.999-5.24,1.999
		c-2.03,0-3.801-0.805-5.248-1.999c-0.642,1.178-1.887,1.999-3.363,1.999c-2.12,0-3.832-1.639-3.832-3.653
		c0-2.014,1.706-3.653,3.832-3.653c0.161,0,0.308,0.075,0.469,0.096c-0.06-0.394-0.233-0.743-0.233-1.149
		C16.287,3.744,20.036,0,24.662,0c4.624,0,8.368,3.744,8.368,8.363c0,0.406-0.168,0.756-0.228,1.144
		c0.155-0.021,0.303-0.096,0.466-0.096C35.391,9.411,37.098,11.056,37.098,13.069z"/>
</g>
<g>
</g>
<g>
</g>
<g>
</g>
<g>
</g>
<g>
</g>
<g>
</g>
<g>
</g>
<g>
</g>
<g>
</g>
<g>
</g>
<g>
</g>
<g>
</g>
<g>
</g>
<g>
</g>
<g>
</g>
</svg>
